<svg height="512pt" viewBox="0 0 512 512" width="512pt" xmlns="http://www.w3.org/2000/svg"><path d="m512 256c0 141.386719-114.613281 256-256 256s-256-114.613281-256-256 114.613281-256 256-256 256 114.613281 256 256zm0 0" fill="#ff5a99"/><path d="m284.609375 510.398438c127.914063-14.226563 227.390625-122.6875 227.390625-254.398438 0-2.496094-.046875-4.980469-.117188-7.460938l-152.648437-152.648437-37.484375 37.484375 42.75 42.625-18.816406 18.816406-99.070313-98.945312-18.761719 18.761718 69.648438 70.367188-55.769531 215.730469-51.398438 15.394531zm0 0" fill="#e53c79"/><path d="m293.53125 397.363281-9.382812 9.382813h-56.296876l-9.382812-9.382813c10.320312 0 18.765625-8.445312 18.765625-18.765625v-66.925781h37.53125v66.925781c0 10.320313 8.445313 18.765625 18.765625 18.765625zm0 0" fill="#e2d8fc"/><path d="m190.320312 397.363281h131.359376v18.765625h-131.359376zm0 0" fill="#f2f2fc"/><path d="m293.53125 397.363281-9.382812 9.382813h-28.148438v-95.074219h18.765625v66.925781c0 10.320313 8.445313 18.765625 18.765625 18.765625zm0 0" fill="#b3a2db"/><path d="m256 397.363281h65.679688v18.765625h-65.679688zm0 0" fill="#e2d8fc"/><path d="m169.292969 136.679688-14.238281 12.207031 18.894531 22.042969 16.371093 18.765624 8.332032-18.765624zm0 0" fill="#663325"/><path d="m406.121094 170.929688-49.164063 56.296874-35.277343 18.765626h-131.359376l-35.277343-18.765626-49.164063-56.296874h68.117188l29.835937 18.765624-5.253906-18.765624zm0 0" fill="#f2f2fc"/><path d="m262.988281 245.992188-64.335937-75.0625h-24.703125l64.339843 75.0625 29.355469 34.25 14.238281-12.207032zm0 0" fill="#8c4a37"/><path d="m406.121094 170.929688-49.164063 56.296874-35.277343 18.765626h-65.679688v-75.0625zm0 0" fill="#e2d8fc"/><path d="m377.972656 114.636719h-18.765625v-18.765625h-18.765625v18.765625h-18.761718v18.765625h18.761718v18.761718h18.765625v-18.761718h18.765625zm0 0" fill="#76e2f8"/><path d="m265.382812 133.402344h18.765626v18.761718h-18.765626zm0 0" fill="#76e2f8"/><path d="m227.851562 95.871094h18.765626v18.765625h-18.765626zm0 0" fill="#a4f7f7"/><path d="m356.957031 227.226562-82.191406 93.824219h-37.53125l-82.191406-93.824219zm0 0" fill="#d697ef"/><path d="m256 208.460938c-15.574219 0-28.148438 12.574218-28.148438 28.148437 0 15.578125 12.574219 28.148437 28.148438 28.148437s28.148438-12.570312 28.148438-28.148437c0-15.574219-12.574219-28.148437-28.148438-28.148437zm0 0" fill="#eebf00"/><path d="m356.957031 227.226562-82.191406 93.824219h-18.765625v-93.824219zm0 0" fill="#ae73e6"/><path d="m256 264.757812v-56.296874c15.574219 0 28.148438 12.574218 28.148438 28.148437 0 15.578125-12.574219 28.148437-28.148438 28.148437zm0 0" fill="#ea9c00"/></svg>